<svg xmlns="http://www.w3.org/2000/svg" width="16" height="13" viewBox="0 0 16 13">
  <metadata><?xpacket begin="﻿" id="W5M0MpCehiHzreSzNTczkc9d"?>
<x:xmpmeta xmlns:x="adobe:ns:meta/" x:xmptk="Adobe XMP Core 5.6-c138 79.159824, 2016/09/14-01:09:01        ">
   <rdf:RDF xmlns:rdf="http://www.w3.org/1999/02/22-rdf-syntax-ns#">
      <rdf:Description rdf:about=""/>
   </rdf:RDF>
</x:xmpmeta>
                                                                                                    
                                                                                                    
                                                                                                    
                                                                                                    
                                                                                                    
                                                                                                    
                                                                                                    
                                                                                                    
                                                                                                    
                                                                                                    
                                                                                                    
                                                                                                    
                                                                                                    
                                                                                                    
                                                                                                    
                                                                                                    
                                                                                                    
                                                                                                    
                                                                                                    
                                                                                                    
                           
<?xpacket end="w"?></metadata>
<defs>
    <style>
      .cls-1 {
        fill: #999;
        fill-rule: evenodd;
      }
    </style>
  </defs>
  <path id="bars" class="cls-1" d="M108.484,24H93.518a0.483,0.483,0,0,0-.517.437v1.941a0.482,0.482,0,0,0,.517.436h14.966A0.482,0.482,0,0,0,109,26.377v-1.94A0.483,0.483,0,0,0,108.484,24Zm0,5.093H93.518A0.483,0.483,0,0,0,93,29.53V31.47a0.483,0.483,0,0,0,.517.437h14.966A0.483,0.483,0,0,0,109,31.47V29.53A0.483,0.483,0,0,0,108.484,29.093Zm0,5.093H93.518a0.482,0.482,0,0,0-.517.437v1.941a0.483,0.483,0,0,0,.517.437h14.966A0.483,0.483,0,0,0,109,36.564v-1.94A0.482,0.482,0,0,0,108.484,34.187Z" transform="translate(-93 -24)"/>
</svg>
