<svg xmlns="http://www.w3.org/2000/svg" width="18" height="18" viewBox="0 0 18 18">
  <metadata><?xpacket begin="﻿" id="W5M0MpCehiHzreSzNTczkc9d"?>
<x:xmpmeta xmlns:x="adobe:ns:meta/" x:xmptk="Adobe XMP Core 5.6-c138 79.159824, 2016/09/14-01:09:01        ">
   <rdf:RDF xmlns:rdf="http://www.w3.org/1999/02/22-rdf-syntax-ns#">
      <rdf:Description rdf:about=""/>
   </rdf:RDF>
</x:xmpmeta>
                                                                                                    
                                                                                                    
                                                                                                    
                                                                                                    
                                                                                                    
                                                                                                    
                                                                                                    
                                                                                                    
                                                                                                    
                                                                                                    
                                                                                                    
                                                                                                    
                                                                                                    
                                                                                                    
                                                                                                    
                                                                                                    
                                                                                                    
                                                                                                    
                                                                                                    
                                                                                                    
                           
<?xpacket end="w"?></metadata>
<defs>
    <style>
      .cls-1 {
        fill: #999;
        fill-rule: evenodd;
      }
    </style>
  </defs>
  <path id="filter" class="cls-1" d="M1329,89.521a2.341,2.341,0,0,0-1.53-2.223,0.839,0.839,0,0,0,.05-0.276V83.8a0.761,0.761,0,1,0-1.52,0v3.222a0.839,0.839,0,0,0,.05.276,2.378,2.378,0,0,0,.07,4.469,0.758,0.758,0,0,0-.12.42V100.2a0.761,0.761,0,1,0,1.52,0V92.187a0.843,0.843,0,0,0-.11-0.42A2.337,2.337,0,0,0,1329,89.521Zm-2.24,1.547a1.549,1.549,0,1,1,1.48-1.547A1.52,1.52,0,0,1,1326.76,91.068Zm-6.05.224a0.846,0.846,0,0,0,.05-0.277V83.8a0.761,0.761,0,1,0-1.52,0v7.215a0.847,0.847,0,0,0,.05.277,2.381,2.381,0,0,0,.06,4.469,0.844,0.844,0,0,0-.11.421v4.02a0.761,0.761,0,1,0,1.52,0V96.181a0.759,0.759,0,0,0-.12-0.42A2.378,2.378,0,0,0,1320.71,91.292Zm-0.71,3.77a1.55,1.55,0,1,1,1.47-1.548A1.514,1.514,0,0,1,1320,95.062Zm-6.05-7.764a0.84,0.84,0,0,0,.05-0.276V83.8a0.761,0.761,0,1,0-1.52,0v3.222a0.834,0.834,0,0,0,.04.276,2.384,2.384,0,0,0,.07,4.47,0.843,0.843,0,0,0-.11.42V100.2a0.761,0.761,0,1,0,1.52,0V92.187a0.758,0.758,0,0,0-.12-0.42A2.383,2.383,0,0,0,1313.95,87.3Zm-0.71,3.77a1.55,1.55,0,1,1,1.47-1.547A1.514,1.514,0,0,1,1313.24,91.068Z" transform="translate(-1311 -83)"/>
</svg>
