<svg xmlns="http://www.w3.org/2000/svg" width="16" height="13" viewBox="0 0 16 13"><defs><style>.cls-1{fill:#999;fill-rule:evenodd}</style></defs><path id="bars" class="cls-1" d="M108.484 24H93.518a.483.483 0 0 0-.517.437v1.941a.482.482 0 0 0 .517.436h14.966a.482.482 0 0 0 .516-.437v-1.94a.483.483 0 0 0-.516-.437zm0 5.093H93.518a.483.483 0 0 0-.518.437v1.94a.483.483 0 0 0 .517.437h14.966a.483.483 0 0 0 .517-.437v-1.94a.483.483 0 0 0-.516-.437zm0 5.093H93.518a.482.482 0 0 0-.517.437v1.941a.483.483 0 0 0 .517.437h14.966a.483.483 0 0 0 .516-.437v-1.94a.482.482 0 0 0-.516-.437z" transform="translate(-93 -24)"/></svg>