<svg xmlns="http://www.w3.org/2000/svg" width="18" height="18" viewBox="0 0 18 18"><defs><style>.cls-1{fill:#999;fill-rule:evenodd}</style></defs><path id="filter" class="cls-1" d="M1329 89.521a2.341 2.341 0 0 0-1.53-2.223.839.839 0 0 0 .05-.276V83.8a.761.761 0 1 0-1.52 0v3.222a.839.839 0 0 0 .05.276 2.378 2.378 0 0 0 .07 4.469.758.758 0 0 0-.12.42v8.013a.761.761 0 1 0 1.52 0v-8.013a.843.843 0 0 0-.11-.42 2.337 2.337 0 0 0 1.59-2.246zm-2.24 1.547a1.549 1.549 0 1 1 1.48-1.547 1.52 1.52 0 0 1-1.48 1.547zm-6.05.224a.846.846 0 0 0 .05-.277V83.8a.761.761 0 1 0-1.52 0v7.215a.847.847 0 0 0 .05.277 2.381 2.381 0 0 0 .06 4.469.844.844 0 0 0-.11.421v4.02a.761.761 0 1 0 1.52 0v-4.021a.759.759 0 0 0-.12-.42 2.378 2.378 0 0 0 .07-4.469zm-.71 3.77a1.55 1.55 0 1 1 1.47-1.548 1.514 1.514 0 0 1-1.47 1.548zm-6.05-7.764a.84.84 0 0 0 .05-.276V83.8a.761.761 0 1 0-1.52 0v3.222a.834.834 0 0 0 .04.276 2.384 2.384 0 0 0 .07 4.47.843.843 0 0 0-.11.42v8.012a.761.761 0 1 0 1.52 0v-8.013a.758.758 0 0 0-.12-.42 2.383 2.383 0 0 0 .07-4.467zm-.71 3.77a1.55 1.55 0 1 1 1.47-1.547 1.514 1.514 0 0 1-1.47 1.547z" transform="translate(-1311 -83)"/></svg>